<svg width="142" height="114" viewBox="0 0 142 114" fill="none" xmlns="http://www.w3.org/2000/svg">
<g clip-path="url(#clip0_4440_244)">
<path d="M3 3H139V105H3V3Z" stroke="black" stroke-width="6"/>
<path d="M18.1545 37.25C15.5878 37.25 13.2711 36.75 11.2045 35.75C9.1378 34.75 7.3545 33.4 5.85446 31.7C4.35446 29.9667 3.18779 28.0333 2.35446 25.9C1.55446 23.7333 1.15446 21.5167 1.15446 19.25C1.15446 16.8833 1.58779 14.6333 2.45446 12.5C3.32112 10.3333 4.52112 8.41667 6.0545 6.75C7.5878 5.05 9.3878 3.71667 11.4545 2.75C13.5545 1.75 15.8211 1.25 18.2545 1.25C20.7878 1.25 23.0878 1.76667 25.1545 2.8C27.2545 3.83333 29.0378 5.21666 30.5045 6.95C32.0045 8.68333 33.1545 10.6167 33.9545 12.75C34.7878 14.8833 35.2045 17.0667 35.2045 19.3C35.2045 21.6667 34.7711 23.9333 33.9045 26.1C33.0711 28.2333 31.8878 30.15 30.3545 31.85C28.8211 33.5167 27.0045 34.8333 24.9045 35.8C22.8378 36.7667 20.5878 37.25 18.1545 37.25ZM6.8545 19.25C6.8545 20.9167 7.1211 22.5333 7.6545 24.1C8.1878 25.6667 8.9378 27.0667 9.9045 28.3C10.9045 29.5 12.1045 30.45 13.5045 31.15C14.9045 31.85 16.4711 32.2 18.2045 32.2C20.0045 32.2 21.6045 31.8333 23.0045 31.1C24.4045 30.3667 25.5711 29.3833 26.5045 28.15C27.4711 26.8833 28.2045 25.4833 28.7045 23.95C29.2045 22.3833 29.4545 20.8167 29.4545 19.25C29.4545 17.5833 29.1878 15.9833 28.6545 14.45C28.1545 12.8833 27.4045 11.5 26.4045 10.3C25.4045 9.06666 24.2045 8.1 22.8045 7.4C21.4378 6.7 19.9045 6.35 18.2045 6.35C16.4045 6.35 14.8045 6.71667 13.4045 7.45C12.0045 8.18333 10.8211 9.16667 9.8545 10.4C8.8878 11.6333 8.1378 13.0167 7.6045 14.55C7.1045 16.0833 6.8545 17.65 6.8545 19.25ZM86.1521 1.5V37H80.5021V21.35H62.6021V37H57.0021V1.5H62.6021V16.35H80.5021V1.5H86.1521ZM124.91 37.25C122.344 37.25 120.027 36.75 117.96 35.75C115.894 34.75 114.11 33.4 112.61 31.7C111.11 29.9667 109.944 28.0333 109.11 25.9C108.31 23.7333 107.91 21.5167 107.91 19.25C107.91 16.8833 108.344 14.6333 109.21 12.5C110.077 10.3333 111.277 8.41667 112.81 6.75C114.344 5.05 116.144 3.71667 118.21 2.75C120.31 1.75 122.577 1.25 125.01 1.25C127.544 1.25 129.844 1.76667 131.91 2.8C134.01 3.83333 135.794 5.21666 137.26 6.95C138.76 8.68333 139.91 10.6167 140.71 12.75C141.544 14.8833 141.96 17.0667 141.96 19.3C141.96 21.6667 141.527 23.9333 140.66 26.1C139.827 28.2333 138.644 30.15 137.11 31.85C135.577 33.5167 133.76 34.8333 131.66 35.8C129.594 36.7667 127.344 37.25 124.91 37.25ZM113.61 19.25C113.61 20.9167 113.877 22.5333 114.41 24.1C114.944 25.6667 115.694 27.0667 116.66 28.3C117.66 29.5 118.86 30.45 120.26 31.15C121.66 31.85 123.227 32.2 124.96 32.2C126.76 32.2 128.36 31.8333 129.76 31.1C131.16 30.3667 132.327 29.3833 133.26 28.15C134.227 26.8833 134.96 25.4833 135.46 23.95C135.96 22.3833 136.21 20.8167 136.21 19.25C136.21 17.5833 135.944 15.9833 135.41 14.45C134.91 12.8833 134.16 11.5 133.16 10.3C132.16 9.06666 130.96 8.1 129.56 7.4C128.194 6.7 126.66 6.35 124.96 6.35C123.16 6.35 121.56 6.71667 120.16 7.45C118.76 8.18333 117.577 9.16667 116.61 10.4C115.644 11.6333 114.894 13.0167 114.36 14.55C113.86 16.0833 113.61 17.65 113.61 19.25ZM29.715 41.45H17.915V72H12.265V41.45H0.415039V36.5H29.715V41.45ZM64.3256 67.05V72H39.9756V36.5H63.8756V41.45H45.5756V51.55H61.4256V56.2H45.5756V67.05H64.3256ZM75.6525 72V36.5H100.603V41.4H81.2525V51.35H91.6525C95.5859 51.35 98.536 52.2833 100.503 54.15C102.469 55.9833 103.453 58.4167 103.453 61.45C103.453 63.4833 103.019 65.3 102.153 66.9C101.319 68.4667 100.053 69.7167 98.353 70.65C96.686 71.55 94.5692 72 92.0025 72H75.6525ZM81.2525 67.1H91.2525C92.7859 67.1 94.0192 66.8167 94.9525 66.25C95.9192 65.6833 96.603 64.9667 97.003 64.1C97.436 63.2 97.653 62.2667 97.653 61.3C97.653 60.3333 97.469 59.4333 97.103 58.6C96.736 57.7667 96.069 57.1 95.1025 56.6C94.1692 56.0667 92.8525 55.8 91.1525 55.8H81.2525V67.1ZM138.558 67.05V72H114.208V36.5H138.108V41.45H119.808V51.55H135.658V56.2H119.808V67.05H138.558ZM29.5904 71.5V107H23.9404V91.35H6.0404V107H0.440429V71.5H6.0404V86.35H23.9404V71.5H29.5904ZM48.8486 71.5H54.1486L67.9486 107H62.0486L58.2986 97.35H44.5986L40.8986 107H34.9486L48.8486 71.5ZM57.1986 93.2L51.4986 77.65L45.5986 93.2H57.1986ZM67.7389 113.8V102.05H69.4389C70.3722 102.05 71.1722 101.683 71.8389 100.95C72.5389 100.217 73.1222 99.05 73.5889 97.45C74.0889 95.85 74.4722 93.75 74.7389 91.15C75.0389 88.5167 75.2555 85.3 75.3889 81.5L75.6389 71.5H98.489V102.05H102.989V113.8H98.039V107H72.6889V113.8H67.7389ZM76.5389 102.05H92.8389V76.45H80.8389L80.6889 82.25C80.5889 86.0833 80.3889 89.3333 80.0889 92C79.7889 94.6333 79.3555 96.7667 78.7889 98.4C78.2222 100.033 77.4722 101.25 76.5389 102.05ZM124.712 107.25C122.145 107.25 119.829 106.75 117.762 105.75C115.695 104.75 113.912 103.4 112.412 101.7C110.912 99.9667 109.745 98.0333 108.912 95.9C108.112 93.7333 107.712 91.5167 107.712 89.25C107.712 86.8833 108.145 84.6333 109.012 82.5C109.879 80.3333 111.079 78.4167 112.612 76.75C114.145 75.05 115.945 73.7167 118.012 72.75C120.112 71.75 122.379 71.25 124.812 71.25C127.345 71.25 129.645 71.7667 131.712 72.8C133.812 73.8333 135.595 75.2167 137.062 76.95C138.562 78.6833 139.712 80.6167 140.512 82.75C141.345 84.8833 141.762 87.0667 141.762 89.3C141.762 91.6667 141.329 93.9333 140.462 96.1C139.629 98.2333 138.445 100.15 136.912 101.85C135.379 103.517 133.562 104.833 131.462 105.8C129.395 106.767 127.145 107.25 124.712 107.25ZM113.412 89.25C113.412 90.9167 113.679 92.5333 114.212 94.1C114.745 95.6667 115.495 97.0667 116.462 98.3C117.462 99.5 118.662 100.45 120.062 101.15C121.462 101.85 123.029 102.2 124.762 102.2C126.562 102.2 128.162 101.833 129.562 101.1C130.962 100.367 132.129 99.3833 133.062 98.15C134.029 96.8833 134.762 95.4833 135.262 93.95C135.762 92.3833 136.012 90.8167 136.012 89.25C136.012 87.5833 135.745 85.9833 135.212 84.45C134.712 82.8833 133.962 81.5 132.962 80.3C131.962 79.0667 130.762 78.1 129.362 77.4C127.995 76.7 126.462 76.35 124.762 76.35C122.962 76.35 121.362 76.7167 119.962 77.45C118.562 78.1833 117.379 79.1667 116.412 80.4C115.445 81.6333 114.695 83.0167 114.162 84.55C113.662 86.0833 113.412 87.65 113.412 89.25Z" fill="black"/>
</g>
<defs>
<clipPath id="clip0_4440_244">
<rect width="142" height="114" fill="white"/>
</clipPath>
</defs>
</svg>
